<svg width="384" height="324" viewBox="0 0 384 324" fill="none" xmlns="http://www.w3.org/2000/svg">
<g clip-path="url(#clip0_132_1323)">
<mask id="mask0_132_1323" style="mask-type:luminance" maskUnits="userSpaceOnUse" x="3" y="0" width="378" height="324">
<path d="M380.304 0.975098H3.76572V323.725H380.304V0.975098Z" fill="white"/>
</mask>
<g mask="url(#mask0_132_1323)">
<path d="M163.502 23.4901H165.023C167.283 23.4901 168.759 21.9087 168.759 19.785C168.759 17.6161 167.267 16.0497 165.114 16.0497H163.502V23.4901ZM161.68 25.1168V14.423H165.084C168.472 14.423 170.641 16.622 170.641 19.785C170.641 22.9328 168.563 25.1168 165.129 25.1168H161.68Z" fill="#222222"/>
<path d="M172.364 25.1168V17.7667H174.051V25.1168H172.364ZM173.207 16.6823C172.574 16.6823 172.077 16.1702 172.077 15.5526C172.077 14.9502 172.574 14.4381 173.207 14.4381C173.84 14.4381 174.352 14.9502 174.352 15.5526C174.352 16.1702 173.84 16.6823 173.207 16.6823Z" fill="#222222"/>
<path d="M178.41 25.2373C177.22 25.2373 176.211 24.8457 175.443 24.1679L176.286 22.9027C176.873 23.4751 177.506 23.7612 178.41 23.7612C179.057 23.7612 179.434 23.4751 179.434 23.0383C179.434 22.6617 178.952 22.481 177.988 22.1496C176.783 21.7279 175.744 21.1857 175.744 19.7398C175.744 18.5348 176.828 17.6613 178.334 17.6613C179.268 17.6613 180.112 17.9173 180.925 18.58L180.082 19.9054C179.494 19.3482 178.816 19.1222 178.244 19.1222C177.913 19.1222 177.446 19.303 177.446 19.7548C177.446 20.1163 177.898 20.3724 178.606 20.6435C180.172 21.261 181.151 21.5472 181.151 23.0081C181.151 24.2432 180.277 25.2373 178.41 25.2373Z" fill="#222222"/>
<path d="M185.838 25.2373C183.669 25.2373 182.088 23.701 182.088 21.4568C182.088 19.1975 183.669 17.6613 185.899 17.6613C187.043 17.6613 188.248 18.1282 188.986 19.0319L187.842 20.0259C187.42 19.5289 186.787 19.1825 185.989 19.1825C184.679 19.1825 183.805 20.1012 183.805 21.4417C183.805 22.7973 184.694 23.701 185.989 23.701C186.802 23.701 187.465 23.3395 187.842 22.8425L189.001 23.8667C188.384 24.6649 187.435 25.2373 185.838 25.2373Z" fill="#222222"/>
<path d="M193.66 23.701C194.849 23.701 195.798 22.7822 195.798 21.4568C195.798 20.1012 194.865 19.1825 193.66 19.1825C192.379 19.1825 191.521 20.1766 191.521 21.4568C191.521 22.7069 192.394 23.701 193.66 23.701ZM193.66 25.2373C191.34 25.2373 189.804 23.6106 189.804 21.4568C189.804 19.2879 191.34 17.6613 193.66 17.6613C195.919 17.6613 197.515 19.1975 197.515 21.4568C197.515 23.6859 195.919 25.2373 193.66 25.2373Z" fill="#222222"/>
<path d="M200.666 25.1168L197.76 17.7667H199.567L201.48 23.0082H201.495L203.408 17.7667H205.2L202.278 25.1168H200.666Z" fill="#222222"/>
<path d="M209.085 19.1825C208.151 19.1825 207.428 19.7097 207.187 20.6736H210.862C210.651 19.785 210.048 19.1825 209.085 19.1825ZM212.564 21.3514C212.564 21.6225 212.534 21.8786 212.519 21.999H207.157C207.368 23.0684 208.166 23.701 209.31 23.701C210.184 23.701 210.786 23.3094 211.163 22.8425L212.338 23.8516C211.72 24.6499 210.802 25.2373 209.22 25.2373C206.991 25.2373 205.409 23.7462 205.409 21.4418C205.409 19.1825 206.946 17.6613 209.1 17.6613C211.163 17.6613 212.564 19.2126 212.564 21.3514Z" fill="#222222"/>
<path d="M214.002 25.1168V17.7667H215.689V18.8662H215.719C216.292 18.098 217.105 17.6613 217.994 17.6613H218.205V19.544C218.009 19.5289 217.813 19.5138 217.692 19.5138C216.412 19.5138 215.689 20.4326 215.689 21.6375V25.1168H214.002Z" fill="#222222"/>
<path d="M220.179 28.099L221.504 24.7101L218.492 17.7667H220.299L222.317 22.6919H222.348L224.23 17.7667H225.962L221.926 28.099H220.179Z" fill="#222222"/>
<path d="M312.161 87.9196H313.893C315.354 87.9196 316.062 87.1665 316.062 86.1122C316.062 84.9826 315.324 84.3048 314.013 84.3048H312.161V87.9196ZM310.338 93.3719V82.6782H314.284C316.83 82.6782 317.944 84.1542 317.944 86.1423C317.944 87.8142 317.131 88.9288 315.565 89.3806L318.336 93.3719H316.152L313.591 89.5613H312.161V93.3719H310.338Z" fill="#222222"/>
<path d="M322.86 87.4379C321.926 87.4379 321.203 87.965 320.962 88.929H324.637C324.426 88.0404 323.824 87.4379 322.86 87.4379ZM326.339 89.6068C326.339 89.8779 326.309 90.1339 326.294 90.2544H320.932C321.143 91.3238 321.941 91.9564 323.086 91.9564C323.959 91.9564 324.562 91.5648 324.938 91.0979L326.113 92.107C325.496 92.9053 324.577 93.4927 322.995 93.4927C320.766 93.4927 319.185 92.0016 319.185 89.6971C319.185 87.4379 320.721 85.9167 322.875 85.9167C324.938 85.9167 326.339 87.468 326.339 89.6068Z" fill="#222222"/>
<path d="M330.128 93.4925C328.938 93.4925 327.929 93.1009 327.161 92.4231L328.004 91.1579C328.592 91.7302 329.224 92.0164 330.128 92.0164C330.776 92.0164 331.152 91.7302 331.152 91.2935C331.152 90.9169 330.67 90.7362 329.706 90.4048C328.501 89.9831 327.462 89.4409 327.462 87.995C327.462 86.79 328.546 85.9164 330.053 85.9164C330.986 85.9164 331.83 86.1725 332.643 86.8352L331.8 88.1606C331.212 87.6033 330.535 87.3774 329.962 87.3774C329.631 87.3774 329.164 87.5582 329.164 88.01C329.164 88.3715 329.616 88.6275 330.324 88.8987C331.89 89.5162 332.869 89.8024 332.869 91.2633C332.869 92.4984 331.996 93.4925 330.128 93.4925Z" fill="#222222"/>
<path d="M337.481 87.4377C336.547 87.4377 335.824 87.9648 335.583 88.9288H339.258C339.048 88.0401 338.445 87.4377 337.481 87.4377ZM340.96 89.6066C340.96 89.8777 340.93 90.1337 340.915 90.2542H335.553C335.764 91.3236 336.562 91.9562 337.707 91.9562C338.581 91.9562 339.183 91.5646 339.56 91.0977L340.735 92.1068C340.117 92.9051 339.198 93.4925 337.617 93.4925C335.388 93.4925 333.806 92.0014 333.806 89.6969C333.806 87.4377 335.342 85.9164 337.496 85.9164C339.56 85.9164 340.96 87.4678 340.96 89.6066Z" fill="#222222"/>
<path d="M345.773 91.9562C346.917 91.9562 347.866 91.0675 347.866 89.7421C347.866 88.4317 346.978 87.4377 345.773 87.4377C344.598 87.4377 343.664 88.3263 343.664 89.7421C343.664 91.0374 344.523 91.9562 345.773 91.9562ZM345.502 93.4925C343.468 93.4925 341.947 92.0014 341.947 89.727C341.947 87.513 343.468 85.9164 345.486 85.9164C346.42 85.9164 347.234 86.2629 347.761 86.9256L347.791 86.9105V86.0219H349.478V93.372H347.866V92.408L347.836 92.393C347.309 93.1009 346.526 93.4925 345.502 93.4925Z" fill="#222222"/>
<path d="M351.306 93.372V86.0219H352.992V87.1214H353.023C353.595 86.3532 354.408 85.9164 355.297 85.9164H355.508V87.7992C355.312 87.7841 355.116 87.769 354.996 87.769C353.715 87.769 352.992 88.6878 352.992 89.8927V93.372H351.306Z" fill="#222222"/>
<path d="M359.715 93.4925C357.546 93.4925 355.965 91.9562 355.965 89.712C355.965 87.4527 357.546 85.9164 359.776 85.9164C360.92 85.9164 362.125 86.3834 362.863 87.2871L361.719 88.2811C361.297 87.7841 360.664 87.4377 359.866 87.4377C358.556 87.4377 357.682 88.3564 357.682 89.6969C357.682 91.0525 358.571 91.9562 359.866 91.9562C360.679 91.9562 361.342 91.5947 361.719 91.0977L362.878 92.1218C362.261 92.9201 361.312 93.4925 359.715 93.4925Z" fill="#222222"/>
<path d="M364.118 93.3719V82.2866H365.804V86.9406H365.82C366.437 86.2628 367.326 85.9164 368.32 85.9164C369.931 85.9164 371.061 86.7749 371.061 88.9739V93.3719H369.374V89.4107C369.374 87.9497 368.787 87.4377 367.778 87.4377C366.558 87.4377 365.804 88.1907 365.804 89.6367V93.3719H364.118Z" fill="#222222"/>
<path d="M313.964 228.001H317.232L315.605 223.362H315.575L313.964 228.001ZM310.71 231.872L314.702 221.178H316.479L320.485 231.872H318.588L317.774 229.567H313.406L312.608 231.872H310.71Z" fill="#222222"/>
<path d="M321.635 231.871V224.521H323.322V225.531H323.352C323.955 224.808 324.844 224.416 325.807 224.416C327.419 224.416 328.503 225.335 328.503 227.549V231.871H326.817V227.986C326.817 226.434 326.229 225.937 325.22 225.937C324.075 225.937 323.322 226.735 323.322 228.181V231.871H321.635Z" fill="#222222"/>
<path d="M333.635 230.456C334.78 230.456 335.729 229.567 335.729 228.242C335.729 226.931 334.84 225.937 333.635 225.937C332.46 225.937 331.527 226.826 331.527 228.242C331.527 229.537 332.385 230.456 333.635 230.456ZM333.364 231.992C331.331 231.992 329.81 230.501 329.81 228.227C329.81 226.012 331.331 224.416 333.349 224.416C334.283 224.416 335.096 224.762 335.623 225.425L335.653 225.41V224.521H337.34V231.871H335.729V230.908L335.699 230.892C335.171 231.6 334.388 231.992 333.364 231.992Z" fill="#222222"/>
<path d="M339.274 231.872V220.786H340.961V231.872H339.274Z" fill="#222222"/>
<path d="M343.638 234.854L344.964 231.465L341.951 224.521H343.759L345.777 229.447H345.807L347.69 224.521H349.422L345.385 234.854H343.638Z" fill="#222222"/>
<path d="M352.668 231.992C351.478 231.992 350.469 231.6 349.7 230.923L350.544 229.657C351.131 230.23 351.764 230.516 352.668 230.516C353.315 230.516 353.692 230.23 353.692 229.793C353.692 229.416 353.21 229.236 352.246 228.904C351.041 228.483 350.002 227.94 350.002 226.494C350.002 225.29 351.086 224.416 352.592 224.416C353.526 224.416 354.37 224.672 355.183 225.335L354.339 226.66C353.752 226.103 353.074 225.877 352.502 225.877C352.171 225.877 351.704 226.058 351.704 226.51C351.704 226.871 352.155 227.127 352.863 227.398C354.43 228.016 355.409 228.302 355.409 229.763C355.409 230.998 354.535 231.992 352.668 231.992Z" fill="#222222"/>
<path d="M356.888 231.872V224.521H358.575V231.872H356.888ZM357.731 223.437C357.099 223.437 356.602 222.925 356.602 222.307C356.602 221.705 357.099 221.193 357.731 221.193C358.364 221.193 358.876 221.705 358.876 222.307C358.876 222.925 358.364 223.437 357.731 223.437Z" fill="#222222"/>
<path d="M362.934 231.992C361.744 231.992 360.735 231.6 359.967 230.923L360.81 229.657C361.398 230.23 362.03 230.516 362.934 230.516C363.582 230.516 363.958 230.23 363.958 229.793C363.958 229.416 363.476 229.236 362.512 228.904C361.308 228.483 360.268 227.94 360.268 226.494C360.268 225.29 361.353 224.416 362.859 224.416C363.793 224.416 364.636 224.672 365.449 225.335L364.606 226.66C364.019 226.103 363.341 225.877 362.769 225.877C362.437 225.877 361.97 226.058 361.97 226.51C361.97 226.871 362.422 227.127 363.13 227.398C364.696 228.016 365.675 228.302 365.675 229.763C365.675 230.998 364.802 231.992 362.934 231.992Z" fill="#222222"/>
<path d="M157.318 307.406V296.712H159.141V307.406H157.318Z" fill="#222222"/>
<path d="M161.32 307.406V300.056H163.007V301.065H163.022C163.625 300.342 164.468 299.95 165.312 299.95C166.306 299.95 167.074 300.342 167.511 301.17H167.541C168.158 300.372 169.092 299.95 170.177 299.95C171.788 299.95 172.752 300.959 172.752 303.158V307.406H171.065V303.58C171.065 302.255 170.628 301.471 169.634 301.471C168.685 301.471 167.917 302.3 167.917 303.746V307.406H166.23V303.58C166.23 302.255 165.763 301.471 164.769 301.471C163.76 301.471 163.007 302.3 163.007 303.746V307.406H161.32Z" fill="#222222"/>
<path d="M178.301 305.99C179.536 305.99 180.41 305.071 180.41 303.776C180.41 302.36 179.461 301.471 178.286 301.471C177.021 301.471 176.147 302.466 176.147 303.776C176.147 305.101 177.096 305.99 178.301 305.99ZM174.536 310.388V300.056H176.223V300.929H176.253C176.795 300.297 177.608 299.95 178.572 299.95C180.606 299.95 182.127 301.547 182.127 303.761C182.127 306.035 180.606 307.526 178.557 307.526C177.563 307.526 176.795 307.165 176.253 306.502L176.223 306.517V310.388H174.536Z" fill="#222222"/>
<path d="M183.695 307.406V296.32H185.382V307.406H183.695Z" fill="#222222"/>
<path d="M190.63 301.471C189.696 301.471 188.973 301.999 188.732 302.963H192.407C192.196 302.074 191.594 301.471 190.63 301.471ZM194.109 303.64C194.109 303.911 194.079 304.168 194.064 304.288H188.702C188.913 305.357 189.711 305.99 190.856 305.99C191.73 305.99 192.332 305.598 192.709 305.131L193.883 306.141C193.266 306.939 192.347 307.526 190.766 307.526C188.536 307.526 186.955 306.035 186.955 303.731C186.955 301.471 188.491 299.95 190.645 299.95C192.709 299.95 194.109 301.502 194.109 303.64Z" fill="#222222"/>
<path d="M195.548 307.406V300.056H197.235V301.065H197.25C197.852 300.342 198.695 299.95 199.539 299.95C200.533 299.95 201.301 300.342 201.738 301.17H201.768C202.386 300.372 203.319 299.95 204.404 299.95C206.015 299.95 206.979 300.959 206.979 303.158V307.406H205.293V303.58C205.293 302.255 204.856 301.471 203.862 301.471C202.913 301.471 202.145 302.3 202.145 303.746V307.406H200.458V303.58C200.458 302.255 199.991 301.471 198.997 301.471C197.988 301.471 197.235 302.3 197.235 303.746V307.406H195.548Z" fill="#222222"/>
<path d="M212.002 301.471C211.069 301.471 210.346 301.999 210.105 302.963H213.78C213.569 302.074 212.966 301.471 212.002 301.471ZM215.482 303.64C215.482 303.911 215.452 304.168 215.436 304.288H210.075C210.285 305.357 211.084 305.99 212.228 305.99C213.102 305.99 213.704 305.598 214.081 305.131L215.256 306.141C214.638 306.939 213.719 307.526 212.138 307.526C209.909 307.526 208.327 306.035 208.327 303.731C208.327 301.471 209.864 299.95 212.018 299.95C214.081 299.95 215.482 301.502 215.482 303.64Z" fill="#222222"/>
<path d="M216.92 307.406V300.056H218.607V301.065H218.637C219.239 300.342 220.128 299.95 221.092 299.95C222.704 299.95 223.788 300.869 223.788 303.083V307.406H222.101V303.52C222.101 301.969 221.514 301.471 220.505 301.471C219.36 301.471 218.607 302.27 218.607 303.716V307.406H216.92Z" fill="#222222"/>
<path d="M227.731 307.526C226.466 307.526 225.682 306.728 225.682 305.086V301.486H224.779V300.055H225.682V297.615L227.369 297.435V300.055H229.523V301.486H227.369V304.92C227.369 305.673 227.595 305.945 228.077 305.945C228.363 305.945 228.77 305.839 229.162 305.628L229.598 307.089C229.162 307.33 228.695 307.526 227.731 307.526Z" fill="#222222"/>
<path d="M23.1974 235.831L19.2061 225.137H21.1641L24.0108 233.21H24.0258L26.8574 225.137H28.8004L24.809 235.831H23.1974Z" fill="#222222"/>
<path d="M32.2366 234.415C33.3813 234.415 34.3302 233.526 34.3302 232.201C34.3302 230.89 33.4415 229.896 32.2366 229.896C31.0618 229.896 30.1279 230.785 30.1279 232.201C30.1279 233.496 30.9865 234.415 32.2366 234.415ZM31.9655 235.951C29.9321 235.951 28.4109 234.46 28.4109 232.186C28.4109 229.972 29.9321 228.375 31.9504 228.375C32.8842 228.375 33.6976 228.721 34.2247 229.384L34.2548 229.369V228.48H35.9418V235.831H34.3302V234.867L34.3 234.852C33.7729 235.559 32.9897 235.951 31.9655 235.951Z" fill="#222222"/>
<path d="M37.8737 235.831V224.745H39.5606V235.831H37.8737Z" fill="#222222"/>
<path d="M41.6767 235.831V228.48H43.3636V235.831H41.6767ZM42.5202 227.396C41.8876 227.396 41.3905 226.884 41.3905 226.266C41.3905 225.664 41.8876 225.152 42.5202 225.152C43.1527 225.152 43.6648 225.664 43.6648 226.266C43.6648 226.884 43.1527 227.396 42.5202 227.396Z" fill="#222222"/>
<path d="M48.7471 234.415C49.952 234.415 50.9009 233.526 50.9009 232.201C50.9009 230.89 50.0273 229.896 48.7621 229.896C47.5873 229.896 46.6384 230.785 46.6384 232.201C46.6384 233.496 47.512 234.415 48.7471 234.415ZM48.491 235.951C46.4577 235.951 44.9214 234.46 44.9214 232.186C44.9214 229.972 46.4577 228.375 48.4759 228.375C49.4399 228.375 50.2683 228.721 50.8256 229.384H50.8406V224.745H52.5125V235.831H50.9009V234.836H50.8858C50.3436 235.544 49.5453 235.951 48.491 235.951Z" fill="#222222"/>
<path d="M57.7861 234.415C58.9308 234.415 59.8797 233.526 59.8797 232.201C59.8797 230.89 58.9911 229.896 57.7861 229.896C56.6113 229.896 55.6775 230.785 55.6775 232.201C55.6775 233.496 56.536 234.415 57.7861 234.415ZM57.515 235.951C55.4817 235.951 53.9605 234.46 53.9605 232.186C53.9605 229.972 55.4817 228.375 57.5 228.375C58.4338 228.375 59.2471 228.721 59.7743 229.384L59.8044 229.369V228.48H61.4913V235.831H59.8797V234.867L59.8496 234.852C59.3224 235.559 58.5392 235.951 57.515 235.951Z" fill="#222222"/>
<path d="M65.503 235.951C64.2378 235.951 63.4546 235.153 63.4546 233.511V229.911H62.5509V228.48H63.4546V226.04L65.1415 225.86V228.48H67.2954V229.911H65.1415V233.345C65.1415 234.098 65.3675 234.37 65.8494 234.37C66.1356 234.37 66.5423 234.264 66.9339 234.053L67.3707 235.514C66.9339 235.755 66.467 235.951 65.503 235.951Z" fill="#222222"/>
<path d="M71.4039 229.896C70.4701 229.896 69.7471 230.423 69.5062 231.387H73.1812C72.9703 230.499 72.3679 229.896 71.4039 229.896ZM74.8832 232.065C74.8832 232.336 74.8531 232.592 74.838 232.713H69.476C69.6869 233.782 70.4852 234.415 71.6299 234.415C72.5034 234.415 73.1059 234.023 73.4824 233.556L74.6572 234.565C74.0397 235.364 73.121 235.951 71.5395 235.951C69.3104 235.951 67.7289 234.46 67.7289 232.156C67.7289 229.896 69.2652 228.375 71.419 228.375C73.4824 228.375 74.8832 229.926 74.8832 232.065Z" fill="#222222"/>
<path d="M13.9861 95.3418V84.648H15.8086V95.3418H13.9861Z" fill="#222222"/>
<path d="M20.1722 95.4623C18.907 95.4623 18.1238 94.664 18.1238 93.0223V89.4226H17.2201V87.9917H18.1238V85.5517L19.8107 85.371V87.9917H21.9645V89.4226H19.8107V92.8566C19.8107 93.6097 20.0366 93.8808 20.5186 93.8808C20.8048 93.8808 21.2114 93.7754 21.603 93.5645L22.0398 95.0255C21.603 95.2665 21.1361 95.4623 20.1722 95.4623Z" fill="#222222"/>
<path d="M26.0731 89.4075C25.1393 89.4075 24.4163 89.9347 24.1753 90.8986H27.8504C27.6395 90.01 27.0371 89.4075 26.0731 89.4075ZM29.5524 91.5764C29.5524 91.8475 29.5222 92.1036 29.5072 92.2241H24.1452C24.3561 93.2934 25.1544 93.926 26.299 93.926C27.1726 93.926 27.7751 93.5344 28.1516 93.0675L29.3264 94.0766C28.7089 94.8749 27.7901 95.4623 26.2087 95.4623C23.9795 95.4623 22.3981 93.9712 22.3981 91.6668C22.3981 89.4075 23.9344 87.8863 26.0882 87.8863C28.1516 87.8863 29.5524 89.4376 29.5524 91.5764Z" fill="#222222"/>
<path d="M30.9908 95.3418V87.9917H32.6777V89.0912H32.7078C33.2802 88.3231 34.0935 87.8863 34.9821 87.8863H35.193V89.769C34.9972 89.7539 34.8014 89.7389 34.6809 89.7389C33.4007 89.7389 32.6777 90.6576 32.6777 91.8626V95.3418H30.9908Z" fill="#222222"/>
<path d="M39.4616 93.926C40.6063 93.926 41.5552 93.0374 41.5552 91.712C41.5552 90.4016 40.6666 89.4075 39.4616 89.4075C38.2868 89.4075 37.353 90.2962 37.353 91.712C37.353 93.0073 38.2115 93.926 39.4616 93.926ZM39.1905 95.4623C37.1572 95.4623 35.636 93.9712 35.636 91.6969C35.636 89.4828 37.1572 87.8863 39.1754 87.8863C40.1093 87.8863 40.9226 88.2327 41.4498 88.8954L41.4799 88.8804V87.9917H43.1668V95.3418H41.5552V94.3779L41.5251 94.3628C40.9979 95.0707 40.2147 95.4623 39.1905 95.4623Z" fill="#222222"/>
<path d="M47.1785 95.4623C45.9133 95.4623 45.1301 94.664 45.1301 93.0223V89.4226H44.2264V87.9917H45.1301V85.5517L46.817 85.371V87.9917H48.9708V89.4226H46.817V92.8566C46.817 93.6097 47.0429 93.8808 47.5249 93.8808C47.8111 93.8808 48.2178 93.7754 48.6094 93.5645L49.0461 95.0255C48.6094 95.2665 48.1424 95.4623 47.1785 95.4623Z" fill="#222222"/>
<path d="M50.2994 95.3418V87.9917H51.9864V95.3418H50.2994ZM51.1429 86.9073C50.5103 86.9073 50.0133 86.3952 50.0133 85.7776C50.0133 85.1752 50.5103 84.6631 51.1429 84.6631C51.7755 84.6631 52.2876 85.1752 52.2876 85.7776C52.2876 86.3952 51.7755 86.9073 51.1429 86.9073Z" fill="#222222"/>
<path d="M57.415 93.926C58.6048 93.926 59.5537 93.0073 59.5537 91.6818C59.5537 90.3263 58.6199 89.4075 57.415 89.4075C56.1347 89.4075 55.2762 90.4016 55.2762 91.6818C55.2762 92.9319 56.1498 93.926 57.415 93.926ZM57.415 95.4623C55.0955 95.4623 53.5592 93.8356 53.5592 91.6818C53.5592 89.513 55.0955 87.8863 57.415 87.8863C59.6742 87.8863 61.2707 89.4226 61.2707 91.6818C61.2707 93.911 59.6742 95.4623 57.415 95.4623Z" fill="#222222"/>
<path d="M62.7263 95.3418V87.9917H64.4132V89.0009H64.4433C65.0458 88.2779 65.9344 87.8863 66.8984 87.8863C68.51 87.8863 69.5944 88.8051 69.5944 91.0191V95.3418H67.9075V91.4559C67.9075 89.9046 67.3201 89.4075 66.311 89.4075C65.1663 89.4075 64.4132 90.2058 64.4132 91.6517V95.3418H62.7263Z" fill="#222222"/>
<path d="M73.703 95.4623C72.5131 95.4623 71.504 95.0707 70.7358 94.3929L71.5793 93.1278C72.1667 93.7001 72.7993 93.9863 73.703 93.9863C74.3506 93.9863 74.7272 93.7001 74.7272 93.2633C74.7272 92.8868 74.2452 92.706 73.2812 92.3747C72.0763 91.9529 71.037 91.4107 71.037 89.9648C71.037 88.7599 72.1215 87.8863 73.6276 87.8863C74.5615 87.8863 75.4049 88.1423 76.2183 88.8051L75.3748 90.1305C74.7874 89.5732 74.1096 89.3473 73.5373 89.3473C73.2059 89.3473 72.739 89.528 72.739 89.9799C72.739 90.3413 73.1909 90.5974 73.8988 90.8685C75.4652 91.486 76.4442 91.7722 76.4442 93.2332C76.4442 94.4682 75.5706 95.4623 73.703 95.4623Z" fill="#222222"/>
<path d="M192.738 42.74V277.351" stroke="#D9D9D9" stroke-width="1.07583"/>
<path d="M294.336 101.392L91.1584 218.697" stroke="#D9D9D9" stroke-width="1.07583"/>
<path d="M295.412 218.697L92.2342 101.392" stroke="#D9D9D9" stroke-width="1.07583"/>
<path d="M248.023 193.278L193.739 249.246L152.124 185L119.282 117.478L193.739 63.6198L278.311 112.729L248.023 193.278Z" fill="black" fill-opacity="0.10196"/>
<path d="M248.023 193.278L193.739 249.246L152.124 185L119.282 117.478L193.739 63.6198L278.311 112.729L248.023 193.278Z" stroke="black" stroke-opacity="0.50196" stroke-width="1.07583"/>
<path d="M214.903 172.789L193.742 231.524L170.414 174.451L155.636 138.356L193.742 84.5782L259.537 121.748L214.903 172.789Z" fill="black" fill-opacity="0.30196"/>
<path d="M214.903 172.789L193.742 231.524L170.414 174.451L155.636 138.356L193.742 84.5782L259.537 121.748L214.903 172.789Z" stroke="black" stroke-opacity="0.50196" stroke-width="1.07583"/>
<path d="M91.1227 101.028L193.326 41.3188L296.067 100.49V219.369L193.326 278.54L91.1227 219.369V101.028Z" stroke="#222222" stroke-opacity="0.69804" stroke-width="1.07583"/>
<path d="M117.48 115.317L194.2 70.3663L271.323 114.912V204.409L194.2 248.955L117.48 204.409V115.317Z" stroke="#222222" stroke-opacity="0.07843" stroke-width="1.07583" stroke-dasharray="7.53 7.53"/>
<path d="M148.679 134.287L193.746 108.021L239.049 134.05V186.347L193.746 212.376L148.679 186.347V134.287Z" stroke="#222222" stroke-opacity="0.07843" stroke-width="1.07583" stroke-dasharray="7.53 7.53"/>
<path d="M179.878 152.451L193.827 144.599L207.85 152.381V168.015L193.827 175.798L179.878 168.015V152.451Z" stroke="#222222" stroke-opacity="0.07843" stroke-width="1.07583" stroke-dasharray="7.53 7.53"/>
</g>
</g>
<defs>
<clipPath id="clip0_132_1323">
<rect width="382.45" height="322.75" fill="white" transform="translate(0.810059 0.975098)"/>
</clipPath>
</defs>
</svg>
