<svg width="28" height="28" viewBox="0 0 28 28" fill="none" xmlns="http://www.w3.org/2000/svg">
<g clip-path="url(#clip0_132_763)">
<g clip-path="url(#clip1_132_763)">
<g clip-path="url(#clip2_132_763)">
<path d="M12.7532 1.63479C13.0736 0.712884 14.3775 0.712884 14.6978 1.63479L17.3628 9.30142C17.5042 9.70812 17.8837 9.98387 18.3142 9.99264L26.4291 10.158C27.4048 10.1779 27.8078 11.4179 27.03 12.0075L20.5621 16.9111C20.219 17.1712 20.074 17.6174 20.1987 18.0296L22.5491 25.7983C22.8317 26.7326 21.7769 27.4988 20.9758 26.9415L14.3135 22.3054C13.9601 22.0595 13.491 22.0595 13.1376 22.3054L6.47525 26.9415C5.67412 27.4988 4.61934 26.7326 4.90196 25.7983L7.25234 18.0296C7.37702 17.6174 7.23204 17.1712 6.88894 16.9111L0.421044 12.0075C-0.356708 11.4179 0.0461822 10.1779 1.02198 10.158L9.13691 9.99264C9.56738 9.98387 9.9469 9.70812 10.0883 9.30142L12.7532 1.63479Z" fill="#F0CA00"/>
</g>
</g>
</g>
<defs>
<clipPath id="clip0_132_763">
<rect width="27.45" height="27.45" fill="white" transform="translate(0 0.210938)"/>
</clipPath>
<clipPath id="clip1_132_763">
<rect width="27.45" height="27.45" fill="white" transform="translate(0 0.210938)"/>
</clipPath>
<clipPath id="clip2_132_763">
<rect width="27.45" height="27.45" fill="white" transform="translate(0 0.210938)"/>
</clipPath>
</defs>
</svg>
