<svg width="29" height="28" viewBox="0 0 29 28" fill="none" xmlns="http://www.w3.org/2000/svg">
<g clip-path="url(#clip0_132_785)">
<g clip-path="url(#clip1_132_785)">
<g clip-path="url(#clip2_132_785)">
<path d="M13.6533 1.63479C13.9738 0.712884 15.2776 0.712884 15.598 1.63479L18.263 9.30142C18.4043 9.70812 18.7838 9.98387 19.2144 9.99264L27.3293 10.158C28.305 10.1779 28.708 11.4179 27.9302 12.0075L21.4623 16.9111C21.1191 17.1712 20.9742 17.6174 21.0988 18.0296L23.4492 25.7983C23.7318 26.7326 22.6771 27.4988 21.8759 26.9415L15.2137 22.3054C14.8603 22.0595 14.3911 22.0595 14.0377 22.3054L7.37539 26.9415C6.57426 27.4988 5.51948 26.7326 5.80211 25.7983L8.15249 18.0296C8.27717 17.6174 8.13219 17.1712 7.78909 16.9111L1.32119 12.0075C0.543439 11.4179 0.946329 10.1779 1.92213 10.158L10.0371 9.99264C10.4675 9.98387 10.847 9.70812 10.9884 9.30142L13.6533 1.63479Z" fill="#F0CA00"/>
</g>
</g>
</g>
<defs>
<clipPath id="clip0_132_785">
<rect width="27.45" height="27.45" fill="white" transform="translate(0.900146 0.210938)"/>
</clipPath>
<clipPath id="clip1_132_785">
<rect width="27.45" height="27.45" fill="white" transform="translate(0.900146 0.210938)"/>
</clipPath>
<clipPath id="clip2_132_785">
<rect width="27.45" height="27.45" fill="white" transform="translate(0.900146 0.210938)"/>
</clipPath>
</defs>
</svg>
