<svg width="69" height="66" viewBox="0 0 69 66" fill="none" xmlns="http://www.w3.org/2000/svg">
<g clip-path="url(#clip0_132_1854)">
<path fill-rule="evenodd" clip-rule="evenodd" d="M0.889648 33.0559C0.889648 15.3303 15.9306 0.960938 34.4846 0.960938C53.0387 0.960938 68.0797 15.3303 68.0797 33.0559C68.0797 50.7815 53.0387 65.1509 34.4846 65.1509C15.9306 65.1509 0.889648 50.7815 0.889648 33.0559Z" fill="white"/>
<path fill-rule="evenodd" clip-rule="evenodd" d="M51.2783 33.0313C51.2783 34.1164 51.1626 35.2001 50.9355 36.2564C50.714 37.2875 50.386 38.3 49.9562 39.2678C49.5364 40.2185 49.0155 41.1346 48.407 41.989C47.8076 42.8379 47.117 43.6343 46.3583 44.3603C45.598 45.0833 44.7615 45.7412 43.8732 46.3164C42.976 46.8937 42.0158 47.3906 41.0201 47.7936C40.0055 48.2019 38.9434 48.5149 37.8649 48.7261C36.7578 48.9436 35.6194 49.0547 34.4819 49.0547C33.3435 49.0547 32.2052 48.9436 31.0997 48.7261C30.0195 48.5149 28.9574 48.2019 27.9437 47.7936C26.9481 47.3906 25.9869 46.8937 25.0897 46.3164C24.2014 45.7412 23.3649 45.0833 22.6063 44.3603C21.8468 43.6343 21.1562 42.8379 20.5559 41.989C19.9506 41.1346 19.429 40.2184 19.0074 39.2678C18.5776 38.3 18.2488 37.2875 18.0266 36.2564C17.8018 35.2001 17.687 34.1164 17.687 33.0313C17.687 31.9453 17.8018 30.8594 18.0267 29.8054C18.2489 28.7742 18.5778 27.7602 19.0075 26.7941C19.429 25.8427 19.9507 24.9257 20.5559 24.0713C21.1563 23.2217 21.8469 22.4267 22.6063 21.6999C23.3649 20.9768 24.2014 20.3205 25.0897 19.7462C25.9869 19.1665 26.9482 18.6697 27.9438 18.266C28.9575 17.8566 30.0195 17.543 31.0997 17.3334C32.2052 17.1174 33.3436 17.0078 34.482 17.0078C35.6194 17.0078 36.7578 17.1174 37.865 17.3334C38.9434 17.543 40.0055 17.8568 41.0201 18.266C42.0158 18.6697 42.9761 19.1665 43.8734 19.7462C44.7616 20.3205 45.5982 20.9768 46.3584 21.6999C47.117 22.4267 47.8076 23.2217 48.4071 24.0713C49.0155 24.9257 49.5364 25.8427 49.9562 26.7941C50.386 27.7602 50.714 28.7742 50.9355 29.8054C51.1626 30.8594 51.2783 31.9453 51.2783 33.0313ZM28.3589 20.6548C24.359 22.4567 21.3737 25.9728 20.4429 30.2102C20.8209 30.2133 26.7982 30.2853 33.6848 28.5398C31.2024 24.332 28.5501 20.8982 28.3589 20.6548ZM34.8808 30.6464C27.4956 32.7557 20.4086 32.6039 20.1544 32.5945C20.1502 32.7416 20.1429 32.884 20.1429 33.0312C20.1429 36.5464 21.533 39.751 23.818 42.1742C23.8131 42.1671 27.7383 35.5238 35.4787 33.1359C35.6657 33.0765 35.856 33.0232 36.0446 32.9717C35.6847 32.1941 35.2917 31.4147 34.8808 30.6464ZM43.9531 22.7601C41.4279 20.6358 38.112 19.3473 34.4804 19.3473C33.315 19.3473 32.184 19.4819 31.1007 19.7308C31.3154 20.0062 34.0097 23.4158 36.4627 27.7127C41.8748 25.777 43.9177 22.8102 43.9531 22.7601ZM37.0155 35.2381C36.9836 35.2482 36.9517 35.2569 36.9204 35.2678C28.4576 38.0823 25.6939 43.7544 25.6639 43.8163C28.0989 45.6228 31.1532 46.7127 34.4797 46.7127C36.466 46.7127 38.3581 46.3269 40.0795 45.6283C39.8671 44.4328 39.0339 40.2423 37.0155 35.2381ZM42.4974 44.3799C45.7181 42.3066 48.0054 39.0142 48.6435 35.2008C48.3483 35.11 44.3353 33.8981 39.7057 34.6062C41.587 39.5384 42.3514 43.5552 42.4974 44.3799ZM37.5591 29.7517C37.892 30.4043 38.2144 31.0684 38.5121 31.7359C38.6179 31.9753 38.7212 32.2101 38.8221 32.4447C43.7494 31.8532 48.6039 32.8484 48.8115 32.889C48.7786 29.6452 47.5623 26.6683 45.5497 24.3375C45.5226 24.3742 43.2221 27.5453 37.5591 29.7517Z" fill="#222222"/>
</g>
<defs>
<clipPath id="clip0_132_1854">
<rect width="67.19" height="64.19" fill="white" transform="translate(0.889648 0.960938)"/>
</clipPath>
</defs>
</svg>
