<svg width="28" height="28" viewBox="0 0 28 28" fill="none" xmlns="http://www.w3.org/2000/svg">
<g clip-path="url(#clip0_132_667)">
<g clip-path="url(#clip1_132_667)">
<g clip-path="url(#clip2_132_667)">
<path d="M13.2327 1.64455C13.5531 0.72265 14.857 0.72265 15.1773 1.64455L17.8423 9.31118C17.9837 9.71788 18.3632 9.99363 18.7937 10.0024L26.9086 10.1678C27.8843 10.1876 28.2873 11.4276 27.5095 12.0173L21.0416 16.9209C20.6985 17.181 20.5535 17.6272 20.6782 18.0393L23.0286 25.8081C23.3112 26.7423 22.2564 27.5086 21.4553 26.9512L14.793 22.3152C14.4396 22.0693 13.9705 22.0693 13.617 22.3152L6.95474 26.9512C6.15361 27.5086 5.09883 26.7423 5.38145 25.8081L7.73183 18.0393C7.85651 17.6272 7.71153 17.181 7.36844 16.9209L0.900536 12.0173C0.122784 11.4276 0.525674 10.1876 1.50148 10.1678L9.6164 10.0024C10.0469 9.99363 10.4264 9.71788 10.5678 9.31118L13.2327 1.64455Z" fill="#F0CA00"/>
</g>
</g>
</g>
<defs>
<clipPath id="clip0_132_667">
<rect width="27.45" height="27.45" fill="white" transform="translate(0.479492 0.220703)"/>
</clipPath>
<clipPath id="clip1_132_667">
<rect width="27.45" height="27.45" fill="white" transform="translate(0.479492 0.220703)"/>
</clipPath>
<clipPath id="clip2_132_667">
<rect width="27.45" height="27.45" fill="white" transform="translate(0.479492 0.220703)"/>
</clipPath>
</defs>
</svg>
