<svg width="29" height="28" viewBox="0 0 29 28" fill="none" xmlns="http://www.w3.org/2000/svg">
<g clip-path="url(#clip0_132_700)">
<g clip-path="url(#clip1_132_700)">
<g clip-path="url(#clip2_132_700)">
<path d="M13.593 1.64455C13.9135 0.72265 15.2173 0.72265 15.5377 1.64455L18.2027 9.31118C18.344 9.71788 18.7235 9.99363 19.1541 10.0024L27.269 10.1678C28.2447 10.1876 28.6477 11.4276 27.8699 12.0173L21.4019 16.9209C21.0588 17.181 20.9139 17.6272 21.0385 18.0393L23.3889 25.8081C23.6715 26.7423 22.6167 27.5086 21.8156 26.9512L15.1534 22.3152C14.7999 22.0693 14.3308 22.0693 13.9774 22.3152L7.31509 26.9512C6.51396 27.5086 5.45918 26.7423 5.74181 25.8081L8.09218 18.0393C8.21686 17.6272 8.07189 17.181 7.72879 16.9209L1.26089 12.0173C0.483136 11.4276 0.886026 10.1876 1.86183 10.1678L9.97675 10.0024C10.4072 9.99363 10.7867 9.71788 10.9281 9.31118L13.593 1.64455Z" fill="#F0CA00"/>
</g>
</g>
</g>
<defs>
<clipPath id="clip0_132_700">
<rect width="27.45" height="27.45" fill="white" transform="translate(0.839844 0.220703)"/>
</clipPath>
<clipPath id="clip1_132_700">
<rect width="27.45" height="27.45" fill="white" transform="translate(0.839844 0.220703)"/>
</clipPath>
<clipPath id="clip2_132_700">
<rect width="27.45" height="27.45" fill="white" transform="translate(0.839844 0.220703)"/>
</clipPath>
</defs>
</svg>
