<svg width="28" height="28" viewBox="0 0 28 28" fill="none" xmlns="http://www.w3.org/2000/svg">
<g clip-path="url(#clip0_132_689)">
<g clip-path="url(#clip1_132_689)">
<g clip-path="url(#clip2_132_689)">
<path d="M13.1428 1.64455C13.4633 0.72265 14.7671 0.72265 15.0875 1.64455L17.7525 9.31118C17.8938 9.71788 18.2733 9.99363 18.7039 10.0024L26.8188 10.1678C27.7945 10.1876 28.1975 11.4276 27.4197 12.0173L20.9518 16.9209C20.6086 17.181 20.4637 17.6272 20.5883 18.0393L22.9387 25.8081C23.2213 26.7423 22.1666 27.5086 21.3654 26.9512L14.7032 22.3152C14.3498 22.0693 13.8806 22.0693 13.5272 22.3152L6.86489 26.9512C6.06377 27.5086 5.00898 26.7423 5.29161 25.8081L7.64199 18.0393C7.76667 17.6272 7.62169 17.181 7.27859 16.9209L0.810692 12.0173C0.0329405 11.4276 0.435831 10.1876 1.41163 10.1678L9.52655 10.0024C9.95703 9.99363 10.3365 9.71788 10.4779 9.31118L13.1428 1.64455Z" fill="#F0CA00"/>
</g>
</g>
</g>
<defs>
<clipPath id="clip0_132_689">
<rect width="27.45" height="27.45" fill="white" transform="translate(0.389648 0.220703)"/>
</clipPath>
<clipPath id="clip1_132_689">
<rect width="27.45" height="27.45" fill="white" transform="translate(0.389648 0.220703)"/>
</clipPath>
<clipPath id="clip2_132_689">
<rect width="27.45" height="27.45" fill="white" transform="translate(0.389648 0.220703)"/>
</clipPath>
</defs>
</svg>
