<svg width="36" height="48" viewBox="0 0 36 48" fill="none" xmlns="http://www.w3.org/2000/svg">
<g clip-path="url(#clip0_132_1887)">
<g clip-path="url(#clip1_132_1887)">
<path d="M3.30746 19.5394C3.10052 19.2117 2.99704 19.0479 2.93911 18.7951C2.89561 18.6053 2.89561 18.3059 2.93911 18.1162C2.99704 17.8634 3.10052 17.6996 3.30746 17.372C5.01761 14.6641 10.108 7.81858 17.8655 7.81858C25.623 7.81858 30.7134 14.6641 32.4235 17.372C32.6304 17.6996 32.7339 17.8634 32.7918 18.1162C32.8354 18.3059 32.8354 18.6053 32.7918 18.7951C32.7339 19.0479 32.6304 19.2117 32.4235 19.5394C30.7134 22.2472 25.623 29.0927 17.8655 29.0927C10.108 29.0927 5.01761 22.2472 3.30746 19.5394Z" stroke="#222222" stroke-width="2.84922" stroke-linecap="round" stroke-linejoin="round"/>
<path d="M17.8654 23.014C20.3832 23.014 22.4241 20.9729 22.4241 18.4552C22.4241 15.9374 20.3832 13.8965 17.8654 13.8965C15.3477 13.8965 13.3066 15.9374 13.3066 18.4552C13.3066 20.9729 15.3477 23.014 17.8654 23.014Z" stroke="#222222" stroke-width="2.84922" stroke-linecap="round" stroke-linejoin="round"/>
</g>
</g>
<defs>
<clipPath id="clip0_132_1887">
<rect width="36" height="48" fill="white"/>
</clipPath>
<clipPath id="clip1_132_1887">
<rect width="36.47" height="36.47" fill="white" transform="translate(-0.370117 0.220703)"/>
</clipPath>
</defs>
</svg>
