<svg width="28" height="28" viewBox="0 0 28 28" fill="none" xmlns="http://www.w3.org/2000/svg">
<g clip-path="url(#clip0_132_774)">
<g clip-path="url(#clip1_132_774)">
<g clip-path="url(#clip2_132_774)">
<path d="M13.2034 1.63479C13.5238 0.712884 14.8277 0.712884 15.148 1.63479L17.813 9.30142C17.9544 9.70812 18.3339 9.98387 18.7644 9.99264L26.8793 10.158C27.855 10.1779 28.258 11.4179 27.4802 12.0075L21.0123 16.9111C20.6692 17.1712 20.5242 17.6174 20.6489 18.0296L22.9993 25.7983C23.2819 26.7326 22.2271 27.4988 21.426 26.9415L14.7637 22.3054C14.4103 22.0595 13.9412 22.0595 13.5877 22.3054L6.92544 26.9415C6.12431 27.4988 5.06953 26.7326 5.35216 25.7983L7.70254 18.0296C7.82721 17.6174 7.68224 17.1712 7.33914 16.9111L0.871239 12.0075C0.0934874 11.4179 0.496378 10.1779 1.47218 10.158L9.5871 9.99264C10.0176 9.98387 10.3971 9.70812 10.5385 9.30142L13.2034 1.63479Z" fill="#F0CA00"/>
</g>
</g>
</g>
<defs>
<clipPath id="clip0_132_774">
<rect width="27.45" height="27.45" fill="white" transform="translate(0.450195 0.210938)"/>
</clipPath>
<clipPath id="clip1_132_774">
<rect width="27.45" height="27.45" fill="white" transform="translate(0.450195 0.210938)"/>
</clipPath>
<clipPath id="clip2_132_774">
<rect width="27.45" height="27.45" fill="white" transform="translate(0.450195 0.210938)"/>
</clipPath>
</defs>
</svg>
