<svg width="29" height="28" viewBox="0 0 29 28" fill="none" xmlns="http://www.w3.org/2000/svg">
<g clip-path="url(#clip0_132_807)">
<g clip-path="url(#clip1_132_807)">
<g clip-path="url(#clip2_132_807)">
<path d="M13.5633 1.63479C13.8837 0.712884 15.1875 0.712884 15.5079 1.63479L18.1729 9.30142C18.3142 9.70812 18.6937 9.98387 19.1243 9.99264L27.2392 10.158C28.2149 10.1779 28.6179 11.4179 27.8401 12.0075L21.3722 16.9111C21.029 17.1712 20.8841 17.6174 21.0087 18.0296L23.3591 25.7983C23.6417 26.7326 22.587 27.4988 21.7858 26.9415L15.1236 22.3054C14.7702 22.0595 14.301 22.0595 13.9476 22.3054L7.2853 26.9415C6.48418 27.4988 5.42939 26.7326 5.71202 25.7983L8.0624 18.0296C8.18708 17.6174 8.0421 17.1712 7.699 16.9111L1.2311 12.0075C0.453351 11.4179 0.856241 10.1779 1.83204 10.158L9.94697 9.99264C10.3774 9.98387 10.757 9.70812 10.8983 9.30142L13.5633 1.63479Z" fill="#F0CA00"/>
</g>
</g>
</g>
<defs>
<clipPath id="clip0_132_807">
<rect width="27.45" height="27.45" fill="white" transform="translate(0.810059 0.210938)"/>
</clipPath>
<clipPath id="clip1_132_807">
<rect width="27.45" height="27.45" fill="white" transform="translate(0.810059 0.210938)"/>
</clipPath>
<clipPath id="clip2_132_807">
<rect width="27.45" height="27.45" fill="white" transform="translate(0.810059 0.210938)"/>
</clipPath>
</defs>
</svg>
