<svg width="28" height="28" viewBox="0 0 28 28" fill="none" xmlns="http://www.w3.org/2000/svg">
<g clip-path="url(#clip0_132_656)">
<g clip-path="url(#clip1_132_656)">
<g clip-path="url(#clip2_132_656)">
<path d="M12.783 1.64455C13.1034 0.72265 14.4073 0.72265 14.7276 1.64455L17.3926 9.31118C17.534 9.71788 17.9135 9.99363 18.344 10.0024L26.4589 10.1678C27.4346 10.1876 27.8376 11.4276 27.0598 12.0173L20.5919 16.9209C20.2488 17.181 20.1038 17.6272 20.2285 18.0393L22.5789 25.8081C22.8615 26.7423 21.8067 27.5086 21.0056 26.9512L14.3433 22.3152C13.9899 22.0693 13.5208 22.0693 13.1673 22.3152L6.50503 26.9512C5.7039 27.5086 4.64912 26.7423 4.93175 25.8081L7.28213 18.0393C7.4068 17.6272 7.26183 17.181 6.91873 16.9209L0.450829 12.0173C-0.326923 11.4276 0.0759674 10.1876 1.05177 10.1678L9.16669 10.0024C9.59716 9.99363 9.97669 9.71788 10.1181 9.31118L12.783 1.64455Z" fill="#F0CA00"/>
</g>
</g>
</g>
<defs>
<clipPath id="clip0_132_656">
<rect width="27.45" height="27.45" fill="white" transform="translate(0.0297852 0.220703)"/>
</clipPath>
<clipPath id="clip1_132_656">
<rect width="27.45" height="27.45" fill="white" transform="translate(0.0297852 0.220703)"/>
</clipPath>
<clipPath id="clip2_132_656">
<rect width="27.45" height="27.45" fill="white" transform="translate(0.0297852 0.220703)"/>
</clipPath>
</defs>
</svg>
