<svg width="29" height="28" viewBox="0 0 29 28" fill="none" xmlns="http://www.w3.org/2000/svg">
<g clip-path="url(#clip0_132_678)">
<g clip-path="url(#clip1_132_678)">
<g clip-path="url(#clip2_132_678)">
<path d="M13.6829 1.64455C14.0033 0.72265 15.3072 0.72265 15.6275 1.64455L18.2925 9.31118C18.4339 9.71788 18.8134 9.99363 19.2439 10.0024L27.3588 10.1678C28.3345 10.1876 28.7375 11.4276 27.9597 12.0173L21.4918 16.9209C21.1487 17.181 21.0037 17.6272 21.1284 18.0393L23.4788 25.8081C23.7614 26.7423 22.7066 27.5086 21.9055 26.9512L15.2432 22.3152C14.8898 22.0693 14.4207 22.0693 14.0672 22.3152L7.40493 26.9512C6.6038 27.5086 5.54902 26.7423 5.83165 25.8081L8.18203 18.0393C8.30671 17.6272 8.16173 17.181 7.81863 16.9209L1.35073 12.0173C0.57298 11.4276 0.97587 10.1876 1.95167 10.1678L10.0666 10.0024C10.4971 9.99363 10.8766 9.71788 11.018 9.31118L13.6829 1.64455Z" fill="#F0CA00"/>
</g>
</g>
</g>
<defs>
<clipPath id="clip0_132_678">
<rect width="27.45" height="27.45" fill="white" transform="translate(0.929688 0.220703)"/>
</clipPath>
<clipPath id="clip1_132_678">
<rect width="27.45" height="27.45" fill="white" transform="translate(0.929688 0.220703)"/>
</clipPath>
<clipPath id="clip2_132_678">
<rect width="27.45" height="27.45" fill="white" transform="translate(0.929688 0.220703)"/>
</clipPath>
</defs>
</svg>
