<svg width="70" height="66" viewBox="0 0 70 66" fill="none" xmlns="http://www.w3.org/2000/svg">
<path fill-rule="evenodd" clip-rule="evenodd" d="M27.547 20.0529C27.5038 18.1804 26.1022 16.7541 23.8261 16.7541C21.55 16.7541 20.062 18.1804 20.062 20.0529C20.062 21.8866 21.506 23.354 23.7397 23.354H23.7822C26.1022 23.354 27.547 21.8866 27.547 20.0529ZM27.0903 25.9644H20.437V45.0623H27.0903V25.9644ZM43.4648 25.5099C47.8429 25.5099 51.1252 28.2401 51.1252 34.1061L51.1249 45.0562H44.4719V34.8389C44.4719 32.2726 43.509 30.5213 41.1005 30.5213C39.2624 30.5213 38.1676 31.7019 37.6868 32.8422C37.5108 33.2508 37.4677 33.8201 37.4677 34.391V45.0568H30.8135C30.8135 45.0568 30.9012 27.751 30.8135 25.9589H37.4677V28.664C38.3507 27.3637 39.9323 25.5099 43.4648 25.5099Z" fill="#222222"/>
<mask id="mask0_132_1832" style="mask-type:luminance" maskUnits="userSpaceOnUse" x="20" y="16" width="32" height="30">
<path fill-rule="evenodd" clip-rule="evenodd" d="M27.547 20.0529C27.5038 18.1804 26.1022 16.7541 23.8261 16.7541C21.55 16.7541 20.062 18.1804 20.062 20.0529C20.062 21.8866 21.506 23.354 23.7397 23.354H23.7822C26.1022 23.354 27.547 21.8866 27.547 20.0529ZM27.0903 25.9644H20.437V45.0623H27.0903V25.9644ZM43.4648 25.5099C47.8429 25.5099 51.1252 28.2401 51.1252 34.1061L51.1249 45.0562H44.4719V34.8389C44.4719 32.2726 43.509 30.5213 41.1005 30.5213C39.2624 30.5213 38.1676 31.7019 37.6868 32.8422C37.5108 33.2508 37.4677 33.8201 37.4677 34.391V45.0568H30.8135C30.8135 45.0568 30.9012 27.751 30.8135 25.9589H37.4677V28.664C38.3507 27.3637 39.9323 25.5099 43.4648 25.5099Z" fill="white"/>
</mask>
<g mask="url(#mask0_132_1832)">
<path d="M27.547 20.0529H27.9671L27.9668 20.0441L27.547 20.0529ZM20.437 25.9644V25.5633H20.017V25.9644H20.437ZM27.0903 25.9644H27.5103V25.5633H27.0903V25.9644ZM20.437 45.0623H20.017V45.4635H20.437V45.0623ZM27.0903 45.0623V45.4635H27.5103V45.0623H27.0903ZM51.1249 45.0563V45.4575H51.5449V45.0563H51.1249ZM44.4719 45.0563H44.052V45.4575H44.4719V45.0563ZM37.6868 32.8422L38.0752 32.9947L38.0763 32.9921L37.6868 32.8422ZM37.4677 45.0568V45.458H37.8877V45.0568H37.4677ZM30.8135 45.0568L30.3936 45.0549L30.3915 45.458H30.8135V45.0568ZM30.8135 25.9589V25.5577H30.3735L30.394 25.9776L30.8135 25.9589ZM37.4677 25.9589H37.8877V25.5577H37.4677V25.9589ZM37.4677 28.664H37.0478V30.0195L37.82 28.8823L37.4677 28.664ZM23.8261 17.1553C24.8697 17.1553 25.68 17.4806 26.2322 17.99C26.7852 18.5001 27.1077 19.2206 27.1272 20.0617L27.9668 20.0441C27.9431 19.0127 27.5432 18.0839 26.8156 17.4127C26.0872 16.7409 25.0586 16.3529 23.8261 16.3529V17.1553ZM20.482 20.0529C20.482 19.2219 20.8101 18.5046 21.3785 17.9934C21.9475 17.4814 22.7813 17.1553 23.8261 17.1553V16.3529C22.5949 16.3529 21.5466 16.74 20.8027 17.4093C20.0579 18.0793 19.6421 19.0114 19.6421 20.0529H20.482ZM23.7397 22.9528C21.7277 22.9528 20.482 21.6553 20.482 20.0529H19.6421C19.6421 22.118 21.2844 23.7552 23.7397 23.7552V22.9528ZM23.7822 22.9528H23.7397V23.7552H23.7822V22.9528ZM27.1271 20.0529C27.1271 20.8664 26.8081 21.5851 26.2441 22.1013C25.6802 22.6175 24.8473 22.9528 23.7822 22.9528V23.7552C25.0371 23.7552 26.0866 23.3567 26.8251 22.6808C27.5634 22.0051 27.9671 21.0732 27.9671 20.0529H27.1271ZM20.437 26.3656H27.0903V25.5633H20.437V26.3656ZM20.8569 45.0623V25.9644H20.017V45.0623H20.8569ZM27.0903 44.6612H20.437V45.4635H27.0903V44.6612ZM26.6704 25.9644V45.0623H27.5103V25.9644H26.6704ZM51.5451 34.1061C51.5451 31.104 50.7045 28.8465 49.2454 27.3362C47.7832 25.8228 45.7472 25.1088 43.4648 25.1088V25.9111C45.5604 25.9111 47.3547 26.5622 48.6282 27.8804C49.9047 29.2017 50.7052 31.2423 50.7052 34.1061H51.5451ZM51.5449 45.0563L51.5451 34.1061H50.7052L50.705 45.0563H51.5449ZM44.4719 45.4575H51.1249V44.6551H44.4719V45.4575ZM44.052 34.8389V45.0563H44.8919V34.8389H44.052ZM41.1005 30.9225C42.1813 30.9225 42.8872 31.3063 43.3425 31.9439C43.8161 32.6068 44.052 33.5923 44.052 34.8389H44.8919C44.8919 33.5191 44.6464 32.3458 44.0364 31.4917C43.408 30.6119 42.4284 30.1202 41.1005 30.1202V30.9225ZM38.0763 32.9921C38.517 31.9472 39.4897 30.9225 41.1005 30.9225V30.1202C39.0353 30.1202 37.8183 31.4566 37.2972 32.6922L38.0763 32.9921ZM37.8877 34.391C37.8877 33.8222 37.9336 33.3237 38.0752 32.9947L37.2984 32.6896C37.0881 33.178 37.0478 33.8182 37.0478 34.391H37.8877ZM37.8877 45.0568V34.391H37.0478V45.0568H37.8877ZM30.8135 45.458H37.4677V44.6557H30.8135V45.458ZM30.394 25.9776C30.4372 26.8608 30.4375 31.6199 30.4264 36.179C30.421 38.4539 30.4128 40.6729 30.4059 42.3231C30.4026 43.1483 30.3994 43.8313 30.3972 44.3079C30.3961 44.5462 30.3953 44.733 30.3945 44.8601C30.3943 44.9238 30.394 44.9724 30.3938 45.0051C30.3938 45.0216 30.3937 45.034 30.3937 45.0423C30.3937 45.0465 30.3937 45.0496 30.3937 45.0517C30.3937 45.0527 30.3936 45.0543 30.3936 45.0549C30.3936 45.0548 30.3936 45.0551 30.3936 45.0549C30.3936 45.055 30.3936 45.0549 30.8135 45.0568C31.2334 45.0588 31.2334 45.0587 31.2334 45.0586C31.2334 45.0588 31.2334 45.0584 31.2334 45.0586C31.2334 45.058 31.2334 45.0566 31.2334 45.0556C31.2336 45.0535 31.2336 45.0503 31.2336 45.0462C31.2336 45.0378 31.2337 45.0254 31.2337 45.009C31.2339 44.9763 31.2342 44.9275 31.2344 44.8639C31.2351 44.7367 31.236 44.5499 31.237 44.3114C31.2393 43.8347 31.2424 43.1517 31.2458 42.3264C31.2526 40.6758 31.2609 38.4564 31.2663 36.1809C31.2774 31.6389 31.2775 26.8491 31.2331 25.9401L30.394 25.9776ZM37.4677 25.5577H30.8135V26.3601H37.4677V25.5577ZM37.8877 28.664V25.9589H37.0478V28.664H37.8877ZM43.4648 25.1088C41.6151 25.1088 40.253 25.5959 39.2337 26.2693C38.2208 26.9388 37.5691 27.7775 37.1153 28.4456L37.82 28.8823C38.2493 28.2502 38.8299 27.5119 39.7115 26.9292C40.587 26.3508 41.7818 25.9111 43.4648 25.9111V25.1088Z" fill="white"/>
</g>
</svg>
