<svg width="28" height="28" viewBox="0 0 28 28" fill="none" xmlns="http://www.w3.org/2000/svg">
<g clip-path="url(#clip0_132_796)">
<g clip-path="url(#clip1_132_796)">
<g clip-path="url(#clip2_132_796)">
<path d="M13.1133 1.63479C13.4338 0.712884 14.7376 0.712884 15.0579 1.63479L17.7229 9.30142C17.8643 9.70812 18.2438 9.98387 18.6743 9.99264L26.7892 10.158C27.765 10.1779 28.1679 11.4179 27.3901 12.0075L20.9222 16.9111C20.5791 17.1712 20.4342 17.6174 20.5588 18.0296L22.9092 25.7983C23.1918 26.7326 22.137 27.4988 21.3359 26.9415L14.6736 22.3054C14.3202 22.0595 13.8511 22.0595 13.4977 22.3054L6.83535 26.9415C6.03422 27.4988 4.97944 26.7326 5.26207 25.7983L7.61245 18.0296C7.73713 17.6174 7.59215 17.1712 7.24905 16.9111L0.781151 12.0075C0.00339948 11.4179 0.40629 10.1779 1.38209 10.158L9.49701 9.99264C9.92748 9.98387 10.307 9.70812 10.4484 9.30142L13.1133 1.63479Z" fill="#F0CA00"/>
</g>
</g>
</g>
<defs>
<clipPath id="clip0_132_796">
<rect width="27.45" height="27.45" fill="white" transform="translate(0.360107 0.210938)"/>
</clipPath>
<clipPath id="clip1_132_796">
<rect width="27.45" height="27.45" fill="white" transform="translate(0.360107 0.210938)"/>
</clipPath>
<clipPath id="clip2_132_796">
<rect width="27.45" height="27.45" fill="white" transform="translate(0.360107 0.210938)"/>
</clipPath>
</defs>
</svg>
